<mxfile host="Electron" modified="2024-09-06T14:28:03.411Z" agent="Mozilla/5.0 (Windows NT 10.0; Win64; x64) AppleWebKit/537.36 (KHTML, like Gecko) draw.io/24.0.4 Chrome/120.0.6099.109 Electron/28.1.0 Safari/537.36" etag="XlId0aWJPWwacNz5o02c" version="24.0.4" type="device">
  <diagram name="Pagina-1" id="YdPWlzsY0eOfPwYLk2Th">
    <mxGraphModel dx="662" dy="464" grid="1" gridSize="10" guides="1" tooltips="1" connect="1" arrows="1" fold="1" page="1" pageScale="1" pageWidth="827" pageHeight="1169" math="0" shadow="0">
      <root>
        <mxCell id="0" />
        <mxCell id="1" parent="0" />
        <mxCell id="odJbvAknHmKHTzvPBQph-160" value="" style="rounded=0;whiteSpace=wrap;html=1;" vertex="1" parent="1">
          <mxGeometry x="315" y="2780" width="495" height="560" as="geometry" />
        </mxCell>
        <mxCell id="odJbvAknHmKHTzvPBQph-124" value="" style="rounded=0;whiteSpace=wrap;html=1;" vertex="1" parent="1">
          <mxGeometry x="332" y="1820" width="358" height="240" as="geometry" />
        </mxCell>
        <mxCell id="odJbvAknHmKHTzvPBQph-3" style="edgeStyle=orthogonalEdgeStyle;rounded=0;orthogonalLoop=1;jettySize=auto;html=1;startArrow=classic;startFill=1;" edge="1" parent="1" source="odJbvAknHmKHTzvPBQph-12">
          <mxGeometry relative="1" as="geometry">
            <mxPoint x="310" y="300" as="targetPoint" />
          </mxGeometry>
        </mxCell>
        <mxCell id="odJbvAknHmKHTzvPBQph-1" value="DB" style="shape=cylinder3;whiteSpace=wrap;html=1;boundedLbl=1;backgroundOutline=1;size=15;" vertex="1" parent="1">
          <mxGeometry x="110" y="260" width="60" height="80" as="geometry" />
        </mxCell>
        <mxCell id="odJbvAknHmKHTzvPBQph-8" style="edgeStyle=orthogonalEdgeStyle;rounded=0;orthogonalLoop=1;jettySize=auto;html=1;startArrow=classic;startFill=1;" edge="1" parent="1" target="odJbvAknHmKHTzvPBQph-7">
          <mxGeometry relative="1" as="geometry">
            <mxPoint x="430" y="300" as="sourcePoint" />
          </mxGeometry>
        </mxCell>
        <mxCell id="odJbvAknHmKHTzvPBQph-7" value="User Interface&lt;div&gt;Angular&lt;/div&gt;" style="shape=cube;whiteSpace=wrap;html=1;boundedLbl=1;backgroundOutline=1;darkOpacity=0.05;darkOpacity2=0.1;fillColor=#dae8fc;strokeColor=#6c8ebf;" vertex="1" parent="1">
          <mxGeometry x="560" y="260" width="120" height="80" as="geometry" />
        </mxCell>
        <mxCell id="odJbvAknHmKHTzvPBQph-10" value="" style="endArrow=none;dashed=1;html=1;dashPattern=1 3;strokeWidth=2;rounded=0;" edge="1" parent="1" source="odJbvAknHmKHTzvPBQph-12">
          <mxGeometry width="50" height="50" relative="1" as="geometry">
            <mxPoint x="240" y="480" as="sourcePoint" />
            <mxPoint x="240" y="170" as="targetPoint" />
          </mxGeometry>
        </mxCell>
        <mxCell id="odJbvAknHmKHTzvPBQph-11" value="" style="endArrow=none;dashed=1;html=1;dashPattern=1 3;strokeWidth=2;rounded=0;" edge="1" parent="1">
          <mxGeometry width="50" height="50" relative="1" as="geometry">
            <mxPoint x="490.88246398515844" y="289.0001740112202" as="sourcePoint" />
            <mxPoint x="490" y="170" as="targetPoint" />
          </mxGeometry>
        </mxCell>
        <mxCell id="odJbvAknHmKHTzvPBQph-13" value="" style="endArrow=none;dashed=1;html=1;dashPattern=1 3;strokeWidth=2;rounded=0;" edge="1" parent="1" target="odJbvAknHmKHTzvPBQph-12">
          <mxGeometry width="50" height="50" relative="1" as="geometry">
            <mxPoint x="240" y="480" as="sourcePoint" />
            <mxPoint x="240" y="170" as="targetPoint" />
          </mxGeometry>
        </mxCell>
        <mxCell id="odJbvAknHmKHTzvPBQph-14" value="" style="edgeStyle=orthogonalEdgeStyle;rounded=0;orthogonalLoop=1;jettySize=auto;html=1;startArrow=classic;startFill=1;" edge="1" parent="1" source="odJbvAknHmKHTzvPBQph-1" target="odJbvAknHmKHTzvPBQph-12">
          <mxGeometry relative="1" as="geometry">
            <mxPoint x="170" y="300" as="sourcePoint" />
            <mxPoint x="310" y="300" as="targetPoint" />
          </mxGeometry>
        </mxCell>
        <mxCell id="odJbvAknHmKHTzvPBQph-12" value="" style="image;aspect=fixed;perimeter=ellipsePerimeter;html=1;align=center;shadow=0;dashed=0;spacingTop=3;image=img/lib/active_directory/internet_cloud.svg;" vertex="1" parent="1">
          <mxGeometry x="214" y="284.25" width="50" height="31.5" as="geometry" />
        </mxCell>
        <mxCell id="odJbvAknHmKHTzvPBQph-17" value="" style="endArrow=none;dashed=1;html=1;dashPattern=1 3;strokeWidth=2;rounded=0;" edge="1" parent="1">
          <mxGeometry width="50" height="50" relative="1" as="geometry">
            <mxPoint x="490" y="480" as="sourcePoint" />
            <mxPoint x="490.91000058245095" y="320.4998980710807" as="targetPoint" />
          </mxGeometry>
        </mxCell>
        <mxCell id="odJbvAknHmKHTzvPBQph-50" style="edgeStyle=orthogonalEdgeStyle;rounded=0;orthogonalLoop=1;jettySize=auto;html=1;startArrow=classic;startFill=1;" edge="1" parent="1" source="odJbvAknHmKHTzvPBQph-60" target="odJbvAknHmKHTzvPBQph-53">
          <mxGeometry relative="1" as="geometry" />
        </mxCell>
        <mxCell id="odJbvAknHmKHTzvPBQph-51" value="DB" style="shape=cylinder3;whiteSpace=wrap;html=1;boundedLbl=1;backgroundOutline=1;size=15;" vertex="1" parent="1">
          <mxGeometry x="115" y="720" width="60" height="80" as="geometry" />
        </mxCell>
        <mxCell id="odJbvAknHmKHTzvPBQph-53" value="Business Logic&lt;div&gt;C#&lt;/div&gt;" style="shape=cube;whiteSpace=wrap;html=1;boundedLbl=1;backgroundOutline=1;darkOpacity=0.05;darkOpacity2=0.1;fillColor=#f8cecc;strokeColor=#b85450;" vertex="1" parent="1">
          <mxGeometry x="315" y="720" width="120" height="80" as="geometry" />
        </mxCell>
        <mxCell id="odJbvAknHmKHTzvPBQph-54" value="User Interface&lt;div&gt;Angular&lt;/div&gt;" style="shape=cube;whiteSpace=wrap;html=1;boundedLbl=1;backgroundOutline=1;darkOpacity=0.05;darkOpacity2=0.1;fillColor=#dae8fc;strokeColor=#6c8ebf;" vertex="1" parent="1">
          <mxGeometry x="565" y="720" width="120" height="80" as="geometry" />
        </mxCell>
        <mxCell id="odJbvAknHmKHTzvPBQph-55" style="edgeStyle=orthogonalEdgeStyle;rounded=0;orthogonalLoop=1;jettySize=auto;html=1;entryX=0;entryY=0;entryDx=50;entryDy=0;entryPerimeter=0;" edge="1" parent="1" target="odJbvAknHmKHTzvPBQph-54">
          <mxGeometry relative="1" as="geometry">
            <mxPoint x="670" y="610" as="sourcePoint" />
          </mxGeometry>
        </mxCell>
        <mxCell id="odJbvAknHmKHTzvPBQph-56" value="" style="endArrow=none;dashed=1;html=1;dashPattern=1 3;strokeWidth=2;rounded=0;" edge="1" parent="1" source="odJbvAknHmKHTzvPBQph-60">
          <mxGeometry width="50" height="50" relative="1" as="geometry">
            <mxPoint x="245" y="940" as="sourcePoint" />
            <mxPoint x="245" y="630" as="targetPoint" />
          </mxGeometry>
        </mxCell>
        <mxCell id="odJbvAknHmKHTzvPBQph-57" value="" style="endArrow=none;dashed=1;html=1;dashPattern=1 3;strokeWidth=2;rounded=0;" edge="1" parent="1">
          <mxGeometry width="50" height="50" relative="1" as="geometry">
            <mxPoint x="495.88246398515844" y="749.0001740112202" as="sourcePoint" />
            <mxPoint x="495" y="630" as="targetPoint" />
          </mxGeometry>
        </mxCell>
        <mxCell id="odJbvAknHmKHTzvPBQph-58" value="" style="endArrow=none;dashed=1;html=1;dashPattern=1 3;strokeWidth=2;rounded=0;" edge="1" parent="1" target="odJbvAknHmKHTzvPBQph-60">
          <mxGeometry width="50" height="50" relative="1" as="geometry">
            <mxPoint x="245" y="940" as="sourcePoint" />
            <mxPoint x="245" y="630" as="targetPoint" />
          </mxGeometry>
        </mxCell>
        <mxCell id="odJbvAknHmKHTzvPBQph-59" value="" style="edgeStyle=orthogonalEdgeStyle;rounded=0;orthogonalLoop=1;jettySize=auto;html=1;startArrow=classic;startFill=1;" edge="1" parent="1" source="odJbvAknHmKHTzvPBQph-51" target="odJbvAknHmKHTzvPBQph-60">
          <mxGeometry relative="1" as="geometry">
            <mxPoint x="175" y="760" as="sourcePoint" />
            <mxPoint x="315" y="760" as="targetPoint" />
          </mxGeometry>
        </mxCell>
        <mxCell id="odJbvAknHmKHTzvPBQph-60" value="" style="image;aspect=fixed;perimeter=ellipsePerimeter;html=1;align=center;shadow=0;dashed=0;spacingTop=3;image=img/lib/active_directory/internet_cloud.svg;" vertex="1" parent="1">
          <mxGeometry x="219" y="744.25" width="50" height="31.5" as="geometry" />
        </mxCell>
        <mxCell id="odJbvAknHmKHTzvPBQph-61" value="" style="endArrow=none;dashed=1;html=1;dashPattern=1 3;strokeWidth=2;rounded=0;" edge="1" parent="1">
          <mxGeometry width="50" height="50" relative="1" as="geometry">
            <mxPoint x="496" y="1050" as="sourcePoint" />
            <mxPoint x="495.9100005844384" y="780.4998977232899" as="targetPoint" />
          </mxGeometry>
        </mxCell>
        <mxCell id="odJbvAknHmKHTzvPBQph-63" value="Business Logic&lt;div&gt;C#&lt;/div&gt;" style="shape=cube;whiteSpace=wrap;html=1;boundedLbl=1;backgroundOutline=1;darkOpacity=0.05;darkOpacity2=0.1;fillColor=#fff2cc;strokeColor=#d6b656;" vertex="1" parent="1">
          <mxGeometry x="315" y="820" width="120" height="80" as="geometry" />
        </mxCell>
        <mxCell id="odJbvAknHmKHTzvPBQph-77" style="edgeStyle=orthogonalEdgeStyle;rounded=0;orthogonalLoop=1;jettySize=auto;html=1;entryX=0.562;entryY=0.059;entryDx=0;entryDy=0;entryPerimeter=0;" edge="1" parent="1" source="odJbvAknHmKHTzvPBQph-54" target="odJbvAknHmKHTzvPBQph-81">
          <mxGeometry relative="1" as="geometry">
            <Array as="points">
              <mxPoint x="545" y="770" />
              <mxPoint x="545" y="783" />
            </Array>
            <mxPoint x="525" y="860" as="targetPoint" />
          </mxGeometry>
        </mxCell>
        <mxCell id="odJbvAknHmKHTzvPBQph-80" value="Business Logic&lt;div&gt;C#&lt;/div&gt;" style="shape=cube;whiteSpace=wrap;html=1;boundedLbl=1;backgroundOutline=1;darkOpacity=0.05;darkOpacity2=0.1;fillColor=#f8cecc;strokeColor=#b85450;" vertex="1" parent="1">
          <mxGeometry x="315" y="930" width="120" height="80" as="geometry" />
        </mxCell>
        <mxCell id="odJbvAknHmKHTzvPBQph-82" style="edgeStyle=orthogonalEdgeStyle;rounded=0;orthogonalLoop=1;jettySize=auto;html=1;" edge="1" parent="1" source="odJbvAknHmKHTzvPBQph-81" target="odJbvAknHmKHTzvPBQph-53">
          <mxGeometry relative="1" as="geometry" />
        </mxCell>
        <mxCell id="odJbvAknHmKHTzvPBQph-81" value="API GATEWAY" style="rounded=0;whiteSpace=wrap;html=1;rotation=90;" vertex="1" parent="1">
          <mxGeometry x="430" y="760" width="130" height="30" as="geometry" />
        </mxCell>
        <mxCell id="odJbvAknHmKHTzvPBQph-83" style="edgeStyle=orthogonalEdgeStyle;rounded=0;orthogonalLoop=1;jettySize=auto;html=1;entryX=0;entryY=0;entryDx=120;entryDy=50;entryPerimeter=0;" edge="1" parent="1" source="odJbvAknHmKHTzvPBQph-81" target="odJbvAknHmKHTzvPBQph-63">
          <mxGeometry relative="1" as="geometry">
            <Array as="points">
              <mxPoint x="458" y="800" />
              <mxPoint x="458" y="870" />
            </Array>
          </mxGeometry>
        </mxCell>
        <mxCell id="odJbvAknHmKHTzvPBQph-84" style="edgeStyle=orthogonalEdgeStyle;rounded=0;orthogonalLoop=1;jettySize=auto;html=1;entryX=0;entryY=0;entryDx=120;entryDy=50;entryPerimeter=0;" edge="1" parent="1" source="odJbvAknHmKHTzvPBQph-81" target="odJbvAknHmKHTzvPBQph-80">
          <mxGeometry relative="1" as="geometry">
            <Array as="points">
              <mxPoint x="470" y="840" />
              <mxPoint x="470" y="980" />
            </Array>
          </mxGeometry>
        </mxCell>
        <mxCell id="odJbvAknHmKHTzvPBQph-89" style="edgeStyle=orthogonalEdgeStyle;rounded=0;orthogonalLoop=1;jettySize=auto;html=1;entryX=0.493;entryY=0.014;entryDx=0;entryDy=0;entryPerimeter=0;" edge="1" parent="1" source="odJbvAknHmKHTzvPBQph-85" target="odJbvAknHmKHTzvPBQph-90">
          <mxGeometry relative="1" as="geometry">
            <mxPoint x="370" y="280" as="targetPoint" />
          </mxGeometry>
        </mxCell>
        <mxCell id="odJbvAknHmKHTzvPBQph-85" value="Img - Business Logic" style="sketch=0;outlineConnect=0;fontColor=#232F3E;gradientColor=none;fillColor=#232F3D;strokeColor=none;dashed=0;verticalLabelPosition=bottom;verticalAlign=top;align=center;html=1;fontSize=12;fontStyle=0;aspect=fixed;pointerEvents=1;shape=mxgraph.aws4.disk;" vertex="1" parent="1">
          <mxGeometry x="331" y="81" width="78" height="78" as="geometry" />
        </mxCell>
        <mxCell id="odJbvAknHmKHTzvPBQph-86" value="Img - User Interface" style="sketch=0;outlineConnect=0;fontColor=#232F3E;gradientColor=none;fillColor=#232F3D;strokeColor=none;dashed=0;verticalLabelPosition=bottom;verticalAlign=top;align=center;html=1;fontSize=12;fontStyle=0;aspect=fixed;pointerEvents=1;shape=mxgraph.aws4.disk;" vertex="1" parent="1">
          <mxGeometry x="581" y="81" width="78" height="78" as="geometry" />
        </mxCell>
        <mxCell id="odJbvAknHmKHTzvPBQph-90" value="Business Logic&lt;br&gt;C#" style="shape=cube;whiteSpace=wrap;html=1;boundedLbl=1;backgroundOutline=1;darkOpacity=0.05;darkOpacity2=0.1;fillColor=#dae8fc;strokeColor=#6c8ebf;" vertex="1" parent="1">
          <mxGeometry x="310" y="270" width="120" height="80" as="geometry" />
        </mxCell>
        <mxCell id="odJbvAknHmKHTzvPBQph-91" value="Business Logic&lt;br&gt;C#" style="shape=cube;whiteSpace=wrap;html=1;boundedLbl=1;backgroundOutline=1;darkOpacity=0.05;darkOpacity2=0.1;fillColor=#dae8fc;strokeColor=#6c8ebf;" vertex="1" parent="1">
          <mxGeometry x="320" y="280" width="120" height="80" as="geometry" />
        </mxCell>
        <mxCell id="odJbvAknHmKHTzvPBQph-92" value="Business Logic&lt;br&gt;C#" style="shape=cube;whiteSpace=wrap;html=1;boundedLbl=1;backgroundOutline=1;darkOpacity=0.05;darkOpacity2=0.1;fillColor=#dae8fc;strokeColor=#6c8ebf;" vertex="1" parent="1">
          <mxGeometry x="330" y="290" width="120" height="80" as="geometry" />
        </mxCell>
        <mxCell id="odJbvAknHmKHTzvPBQph-93" value="Dev triste" style="shape=umlActor;verticalLabelPosition=bottom;verticalAlign=top;html=1;outlineConnect=0;" vertex="1" parent="1">
          <mxGeometry x="140" y="1480" width="30" height="60" as="geometry" />
        </mxCell>
        <mxCell id="odJbvAknHmKHTzvPBQph-95" style="edgeStyle=orthogonalEdgeStyle;rounded=0;orthogonalLoop=1;jettySize=auto;html=1;" edge="1" parent="1" source="odJbvAknHmKHTzvPBQph-94">
          <mxGeometry relative="1" as="geometry">
            <mxPoint x="500" y="1390" as="targetPoint" />
          </mxGeometry>
        </mxCell>
        <mxCell id="odJbvAknHmKHTzvPBQph-94" value="MMicroservizio DEV" style="shape=cube;whiteSpace=wrap;html=1;boundedLbl=1;backgroundOutline=1;darkOpacity=0.05;darkOpacity2=0.1;fillColor=#dae8fc;strokeColor=#6c8ebf;" vertex="1" parent="1">
          <mxGeometry x="240" y="1490" width="120" height="80" as="geometry" />
        </mxCell>
        <mxCell id="odJbvAknHmKHTzvPBQph-97" style="edgeStyle=orthogonalEdgeStyle;rounded=0;orthogonalLoop=1;jettySize=auto;html=1;" edge="1" parent="1" source="odJbvAknHmKHTzvPBQph-96">
          <mxGeometry relative="1" as="geometry">
            <mxPoint x="500" y="1240" as="targetPoint" />
          </mxGeometry>
        </mxCell>
        <mxCell id="odJbvAknHmKHTzvPBQph-96" value="Internet" style="ellipse;shape=cloud;whiteSpace=wrap;html=1;" vertex="1" parent="1">
          <mxGeometry x="440" y="1310" width="120" height="80" as="geometry" />
        </mxCell>
        <mxCell id="odJbvAknHmKHTzvPBQph-98" value="Docker Hub" style="shape=cylinder3;whiteSpace=wrap;html=1;boundedLbl=1;backgroundOutline=1;size=15;fillColor=#dae8fc;strokeColor=#6c8ebf;" vertex="1" parent="1">
          <mxGeometry x="470" y="1150" width="60" height="80" as="geometry" />
        </mxCell>
        <mxCell id="odJbvAknHmKHTzvPBQph-102" style="edgeStyle=orthogonalEdgeStyle;rounded=0;orthogonalLoop=1;jettySize=auto;html=1;" edge="1" parent="1" source="odJbvAknHmKHTzvPBQph-99" target="odJbvAknHmKHTzvPBQph-98">
          <mxGeometry relative="1" as="geometry" />
        </mxCell>
        <mxCell id="odJbvAknHmKHTzvPBQph-99" value="" style="image;html=1;image=img/lib/clip_art/computers/Server_Rack_128x128.png" vertex="1" parent="1">
          <mxGeometry x="700" y="1150" width="80" height="80" as="geometry" />
        </mxCell>
        <mxCell id="odJbvAknHmKHTzvPBQph-103" value="Microservizio Prod" style="shape=cube;whiteSpace=wrap;html=1;boundedLbl=1;backgroundOutline=1;darkOpacity=0.05;darkOpacity2=0.1;fillColor=#fff2cc;strokeColor=#d6b656;" vertex="1" parent="1">
          <mxGeometry x="685" y="1270" width="120" height="80" as="geometry" />
        </mxCell>
        <mxCell id="odJbvAknHmKHTzvPBQph-104" style="edgeStyle=orthogonalEdgeStyle;rounded=0;orthogonalLoop=1;jettySize=auto;html=1;entryX=0.475;entryY=0.008;entryDx=0;entryDy=0;entryPerimeter=0;" edge="1" parent="1" source="odJbvAknHmKHTzvPBQph-99" target="odJbvAknHmKHTzvPBQph-103">
          <mxGeometry relative="1" as="geometry" />
        </mxCell>
        <mxCell id="odJbvAknHmKHTzvPBQph-105" value="1" style="text;html=1;align=center;verticalAlign=middle;whiteSpace=wrap;rounded=0;" vertex="1" parent="1">
          <mxGeometry x="435" y="1480" width="60" height="30" as="geometry" />
        </mxCell>
        <mxCell id="odJbvAknHmKHTzvPBQph-106" value="2" style="text;html=1;align=center;verticalAlign=middle;whiteSpace=wrap;rounded=0;" vertex="1" parent="1">
          <mxGeometry x="430" y="1260" width="60" height="30" as="geometry" />
        </mxCell>
        <mxCell id="odJbvAknHmKHTzvPBQph-110" value="3" style="text;html=1;align=center;verticalAlign=middle;whiteSpace=wrap;rounded=0;" vertex="1" parent="1">
          <mxGeometry x="595" y="1160" width="60" height="30" as="geometry" />
        </mxCell>
        <mxCell id="odJbvAknHmKHTzvPBQph-111" value="4" style="text;html=1;align=center;verticalAlign=middle;whiteSpace=wrap;rounded=0;" vertex="1" parent="1">
          <mxGeometry x="680" y="1230" width="60" height="30" as="geometry" />
        </mxCell>
        <mxCell id="odJbvAknHmKHTzvPBQph-121" style="edgeStyle=orthogonalEdgeStyle;rounded=0;orthogonalLoop=1;jettySize=auto;html=1;" edge="1" parent="1" source="odJbvAknHmKHTzvPBQph-120">
          <mxGeometry relative="1" as="geometry">
            <mxPoint x="350" y="1900" as="targetPoint" />
          </mxGeometry>
        </mxCell>
        <mxCell id="odJbvAknHmKHTzvPBQph-120" value="DEV" style="shape=umlActor;verticalLabelPosition=bottom;verticalAlign=top;html=1;outlineConnect=0;" vertex="1" parent="1">
          <mxGeometry x="189" y="1870" width="30" height="60" as="geometry" />
        </mxCell>
        <mxCell id="odJbvAknHmKHTzvPBQph-123" style="edgeStyle=orthogonalEdgeStyle;rounded=0;orthogonalLoop=1;jettySize=auto;html=1;" edge="1" parent="1" source="odJbvAknHmKHTzvPBQph-122">
          <mxGeometry relative="1" as="geometry">
            <mxPoint x="510" y="1900" as="targetPoint" />
            <Array as="points">
              <mxPoint x="475" y="1905" />
              <mxPoint x="475" y="1901" />
            </Array>
          </mxGeometry>
        </mxCell>
        <mxCell id="odJbvAknHmKHTzvPBQph-122" value="Repository" style="shape=cylinder3;whiteSpace=wrap;html=1;boundedLbl=1;backgroundOutline=1;size=15;" vertex="1" parent="1">
          <mxGeometry x="354" y="1860" width="76" height="90" as="geometry" />
        </mxCell>
        <mxCell id="odJbvAknHmKHTzvPBQph-126" value="GitHub" style="text;html=1;align=center;verticalAlign=middle;whiteSpace=wrap;rounded=0;" vertex="1" parent="1">
          <mxGeometry x="330" y="1790" width="60" height="30" as="geometry" />
        </mxCell>
        <mxCell id="odJbvAknHmKHTzvPBQph-132" style="edgeStyle=orthogonalEdgeStyle;rounded=0;orthogonalLoop=1;jettySize=auto;html=1;" edge="1" parent="1" source="odJbvAknHmKHTzvPBQph-127">
          <mxGeometry relative="1" as="geometry">
            <mxPoint x="790" y="1910" as="targetPoint" />
          </mxGeometry>
        </mxCell>
        <mxCell id="odJbvAknHmKHTzvPBQph-127" value="GitHub Actions" style="shape=cube;whiteSpace=wrap;html=1;boundedLbl=1;backgroundOutline=1;darkOpacity=0.05;darkOpacity2=0.1;" vertex="1" parent="1">
          <mxGeometry x="510" y="1870" width="120" height="80" as="geometry" />
        </mxCell>
        <mxCell id="odJbvAknHmKHTzvPBQph-128" value="Sorgente" style="text;html=1;align=center;verticalAlign=middle;whiteSpace=wrap;rounded=0;" vertex="1" parent="1">
          <mxGeometry x="264" y="1870" width="60" height="30" as="geometry" />
        </mxCell>
        <mxCell id="odJbvAknHmKHTzvPBQph-129" value="Sorgente" style="text;html=1;align=center;verticalAlign=middle;whiteSpace=wrap;rounded=0;" vertex="1" parent="1">
          <mxGeometry x="440" y="1870" width="60" height="30" as="geometry" />
        </mxCell>
        <mxCell id="odJbvAknHmKHTzvPBQph-133" value="Immagine&lt;br&gt;Eseguibile" style="text;html=1;align=center;verticalAlign=middle;whiteSpace=wrap;rounded=0;" vertex="1" parent="1">
          <mxGeometry x="700" y="1860" width="60" height="30" as="geometry" />
        </mxCell>
        <mxCell id="odJbvAknHmKHTzvPBQph-148" style="edgeStyle=orthogonalEdgeStyle;rounded=0;orthogonalLoop=1;jettySize=auto;html=1;" edge="1" parent="1" source="odJbvAknHmKHTzvPBQph-134">
          <mxGeometry relative="1" as="geometry">
            <mxPoint x="930" y="1910" as="targetPoint" />
          </mxGeometry>
        </mxCell>
        <mxCell id="odJbvAknHmKHTzvPBQph-134" value="Docker Hub" style="shape=cylinder3;whiteSpace=wrap;html=1;boundedLbl=1;backgroundOutline=1;size=15;" vertex="1" parent="1">
          <mxGeometry x="790" y="1870" width="60" height="80" as="geometry" />
        </mxCell>
        <mxCell id="odJbvAknHmKHTzvPBQph-135" value="" style="endArrow=none;html=1;rounded=0;entryX=0;entryY=0;entryDx=0;entryDy=60;entryPerimeter=0;exitX=0;exitY=0;exitDx=0;exitDy=0;" edge="1" parent="1" source="odJbvAknHmKHTzvPBQph-137" target="odJbvAknHmKHTzvPBQph-127">
          <mxGeometry width="50" height="50" relative="1" as="geometry">
            <mxPoint x="530" y="2120" as="sourcePoint" />
            <mxPoint x="580" y="2150" as="targetPoint" />
          </mxGeometry>
        </mxCell>
        <mxCell id="odJbvAknHmKHTzvPBQph-136" value="" style="endArrow=none;html=1;rounded=0;exitX=1;exitY=0;exitDx=0;exitDy=0;" edge="1" parent="1" source="odJbvAknHmKHTzvPBQph-137">
          <mxGeometry width="50" height="50" relative="1" as="geometry">
            <mxPoint x="920.8887939453125" y="2080" as="sourcePoint" />
            <mxPoint x="630" y="1890" as="targetPoint" />
          </mxGeometry>
        </mxCell>
        <mxCell id="odJbvAknHmKHTzvPBQph-137" value="" style="rounded=0;whiteSpace=wrap;html=1;" vertex="1" parent="1">
          <mxGeometry x="539" y="2120" width="391" height="200" as="geometry" />
        </mxCell>
        <mxCell id="odJbvAknHmKHTzvPBQph-138" value="" style="endArrow=classic;html=1;rounded=0;" edge="1" parent="1" target="odJbvAknHmKHTzvPBQph-142">
          <mxGeometry width="50" height="50" relative="1" as="geometry">
            <mxPoint x="480" y="2220" as="sourcePoint" />
            <mxPoint x="530" y="2180" as="targetPoint" />
          </mxGeometry>
        </mxCell>
        <mxCell id="odJbvAknHmKHTzvPBQph-139" value="Sorgente" style="text;html=1;align=center;verticalAlign=middle;whiteSpace=wrap;rounded=0;" vertex="1" parent="1">
          <mxGeometry x="479" y="2180" width="60" height="30" as="geometry" />
        </mxCell>
        <mxCell id="odJbvAknHmKHTzvPBQph-146" style="edgeStyle=orthogonalEdgeStyle;rounded=0;orthogonalLoop=1;jettySize=auto;html=1;entryX=0;entryY=0.5;entryDx=0;entryDy=0;" edge="1" parent="1" source="odJbvAknHmKHTzvPBQph-142" target="odJbvAknHmKHTzvPBQph-143">
          <mxGeometry relative="1" as="geometry" />
        </mxCell>
        <mxCell id="odJbvAknHmKHTzvPBQph-142" value="Build" style="rounded=0;whiteSpace=wrap;html=1;" vertex="1" parent="1">
          <mxGeometry x="570" y="2190" width="80" height="60" as="geometry" />
        </mxCell>
        <mxCell id="odJbvAknHmKHTzvPBQph-147" style="edgeStyle=orthogonalEdgeStyle;rounded=0;orthogonalLoop=1;jettySize=auto;html=1;entryX=0;entryY=0.5;entryDx=0;entryDy=0;" edge="1" parent="1" source="odJbvAknHmKHTzvPBQph-143" target="odJbvAknHmKHTzvPBQph-144">
          <mxGeometry relative="1" as="geometry" />
        </mxCell>
        <mxCell id="odJbvAknHmKHTzvPBQph-143" value="Test" style="rounded=0;whiteSpace=wrap;html=1;" vertex="1" parent="1">
          <mxGeometry x="694.5" y="2190" width="80" height="60" as="geometry" />
        </mxCell>
        <mxCell id="odJbvAknHmKHTzvPBQph-145" style="edgeStyle=orthogonalEdgeStyle;rounded=0;orthogonalLoop=1;jettySize=auto;html=1;" edge="1" parent="1" source="odJbvAknHmKHTzvPBQph-144">
          <mxGeometry relative="1" as="geometry">
            <mxPoint x="990" y="2220" as="targetPoint" />
          </mxGeometry>
        </mxCell>
        <mxCell id="odJbvAknHmKHTzvPBQph-144" value="CY Test" style="rounded=0;whiteSpace=wrap;html=1;" vertex="1" parent="1">
          <mxGeometry x="820" y="2190" width="80" height="60" as="geometry" />
        </mxCell>
        <mxCell id="odJbvAknHmKHTzvPBQph-149" value="" style="image;html=1;image=img/lib/clip_art/computers/Server_Rack_128x128.png" vertex="1" parent="1">
          <mxGeometry x="920" y="1870" width="80" height="80" as="geometry" />
        </mxCell>
        <mxCell id="odJbvAknHmKHTzvPBQph-150" value="" style="shape=flexArrow;endArrow=classic;startArrow=classic;html=1;rounded=0;" edge="1" parent="1">
          <mxGeometry width="100" height="100" relative="1" as="geometry">
            <mxPoint x="495" y="1754" as="sourcePoint" />
            <mxPoint x="985" y="1754" as="targetPoint" />
          </mxGeometry>
        </mxCell>
        <mxCell id="odJbvAknHmKHTzvPBQph-151" value="OPS" style="text;html=1;align=center;verticalAlign=middle;whiteSpace=wrap;rounded=0;" vertex="1" parent="1">
          <mxGeometry x="730" y="1710" width="60" height="30" as="geometry" />
        </mxCell>
        <mxCell id="odJbvAknHmKHTzvPBQph-152" value="" style="shape=flexArrow;endArrow=classic;startArrow=classic;html=1;rounded=0;" edge="1" parent="1">
          <mxGeometry width="100" height="100" relative="1" as="geometry">
            <mxPoint x="190" y="1753" as="sourcePoint" />
            <mxPoint x="490" y="1753" as="targetPoint" />
          </mxGeometry>
        </mxCell>
        <mxCell id="odJbvAknHmKHTzvPBQph-153" value="DEV" style="text;html=1;align=center;verticalAlign=middle;whiteSpace=wrap;rounded=0;" vertex="1" parent="1">
          <mxGeometry x="300" y="1710" width="60" height="30" as="geometry" />
        </mxCell>
        <mxCell id="odJbvAknHmKHTzvPBQph-154" value="" style="shape=flexArrow;endArrow=classic;startArrow=classic;html=1;rounded=0;" edge="1" parent="1">
          <mxGeometry width="100" height="100" relative="1" as="geometry">
            <mxPoint x="189" y="1690" as="sourcePoint" />
            <mxPoint x="830" y="1690" as="targetPoint" />
          </mxGeometry>
        </mxCell>
        <mxCell id="odJbvAknHmKHTzvPBQph-155" value="Continuous Deployment" style="text;html=1;align=center;verticalAlign=middle;whiteSpace=wrap;rounded=0;" vertex="1" parent="1">
          <mxGeometry x="880" y="1650" width="60" height="30" as="geometry" />
        </mxCell>
        <mxCell id="odJbvAknHmKHTzvPBQph-156" value="Continuous Integration" style="text;html=1;align=center;verticalAlign=middle;whiteSpace=wrap;rounded=0;" vertex="1" parent="1">
          <mxGeometry x="479" y="1650" width="60" height="30" as="geometry" />
        </mxCell>
        <mxCell id="odJbvAknHmKHTzvPBQph-157" value="" style="shape=flexArrow;endArrow=classic;startArrow=classic;html=1;rounded=0;" edge="1" parent="1">
          <mxGeometry width="100" height="100" relative="1" as="geometry">
            <mxPoint x="840" y="1690" as="sourcePoint" />
            <mxPoint x="980" y="1690" as="targetPoint" />
          </mxGeometry>
        </mxCell>
        <mxCell id="odJbvAknHmKHTzvPBQph-161" value="PC" style="text;html=1;align=center;verticalAlign=middle;whiteSpace=wrap;rounded=0;" vertex="1" parent="1">
          <mxGeometry x="310" y="2750" width="60" height="30" as="geometry" />
        </mxCell>
        <mxCell id="odJbvAknHmKHTzvPBQph-162" value="" style="shape=cube;whiteSpace=wrap;html=1;boundedLbl=1;backgroundOutline=1;darkOpacity=0.05;darkOpacity2=0.1;fillColor=#dae8fc;strokeColor=#6c8ebf;" vertex="1" parent="1">
          <mxGeometry x="490" y="2950" width="300" height="360" as="geometry" />
        </mxCell>
        <mxCell id="odJbvAknHmKHTzvPBQph-163" value="Local Repo" style="text;html=1;align=center;verticalAlign=middle;whiteSpace=wrap;rounded=0;" vertex="1" parent="1">
          <mxGeometry x="710" y="2920" width="60" height="30" as="geometry" />
        </mxCell>
        <mxCell id="odJbvAknHmKHTzvPBQph-167" value="" style="rounded=0;whiteSpace=wrap;html=1;fillColor=#fff2cc;strokeColor=#d6b656;" vertex="1" parent="1">
          <mxGeometry x="530" y="3000" width="100" height="160" as="geometry" />
        </mxCell>
        <mxCell id="odJbvAknHmKHTzvPBQph-158" value="ciao&lt;div&gt;Giovanni&lt;/div&gt;" style="shape=note;whiteSpace=wrap;html=1;backgroundOutline=1;darkOpacity=0.05;" vertex="1" parent="1">
          <mxGeometry x="360" y="2820" width="80" height="100" as="geometry" />
        </mxCell>
        <mxCell id="odJbvAknHmKHTzvPBQph-170" style="edgeStyle=orthogonalEdgeStyle;rounded=0;orthogonalLoop=1;jettySize=auto;html=1;" edge="1" parent="1" source="odJbvAknHmKHTzvPBQph-159" target="odJbvAknHmKHTzvPBQph-162">
          <mxGeometry relative="1" as="geometry" />
        </mxCell>
        <mxCell id="odJbvAknHmKHTzvPBQph-159" value="prova.txt" style="text;html=1;align=center;verticalAlign=middle;whiteSpace=wrap;rounded=0;" vertex="1" parent="1">
          <mxGeometry x="370" y="2920" width="60" height="30" as="geometry" />
        </mxCell>
        <mxCell id="odJbvAknHmKHTzvPBQph-168" value="ciao" style="shape=note;whiteSpace=wrap;html=1;backgroundOutline=1;darkOpacity=0.05;" vertex="1" parent="1">
          <mxGeometry x="539" y="3020" width="80" height="100" as="geometry" />
        </mxCell>
        <mxCell id="odJbvAknHmKHTzvPBQph-169" value="prova.txt" style="text;html=1;align=center;verticalAlign=middle;whiteSpace=wrap;rounded=0;" vertex="1" parent="1">
          <mxGeometry x="549" y="3120" width="60" height="30" as="geometry" />
        </mxCell>
        <mxCell id="odJbvAknHmKHTzvPBQph-171" value="AB1234&lt;div&gt;20240906T1056&lt;/div&gt;" style="text;html=1;align=center;verticalAlign=middle;whiteSpace=wrap;rounded=0;" vertex="1" parent="1">
          <mxGeometry x="549" y="3160" width="60" height="30" as="geometry" />
        </mxCell>
        <mxCell id="odJbvAknHmKHTzvPBQph-172" value="Commit" style="text;html=1;align=center;verticalAlign=middle;whiteSpace=wrap;rounded=0;" vertex="1" parent="1">
          <mxGeometry x="384" y="3010" width="60" height="30" as="geometry" />
        </mxCell>
        <mxCell id="odJbvAknHmKHTzvPBQph-177" value="Internet" style="ellipse;shape=cloud;whiteSpace=wrap;html=1;" vertex="1" parent="1">
          <mxGeometry x="930" y="2882" width="120" height="80" as="geometry" />
        </mxCell>
        <mxCell id="odJbvAknHmKHTzvPBQph-178" style="edgeStyle=orthogonalEdgeStyle;rounded=0;orthogonalLoop=1;jettySize=auto;html=1;entryX=0.55;entryY=0.95;entryDx=0;entryDy=0;entryPerimeter=0;" edge="1" parent="1" source="odJbvAknHmKHTzvPBQph-162" target="odJbvAknHmKHTzvPBQph-177">
          <mxGeometry relative="1" as="geometry">
            <Array as="points">
              <mxPoint x="996" y="3130" />
            </Array>
          </mxGeometry>
        </mxCell>
        <mxCell id="odJbvAknHmKHTzvPBQph-179" value="" style="shape=cylinder3;whiteSpace=wrap;html=1;boundedLbl=1;backgroundOutline=1;size=15;" vertex="1" parent="1">
          <mxGeometry x="960" y="2670" width="60" height="80" as="geometry" />
        </mxCell>
        <mxCell id="odJbvAknHmKHTzvPBQph-180" value="" style="shape=cube;whiteSpace=wrap;html=1;boundedLbl=1;backgroundOutline=1;darkOpacity=0.05;darkOpacity2=0.1;fillColor=#dae8fc;strokeColor=#6c8ebf;" vertex="1" parent="1">
          <mxGeometry x="840" y="2510" width="300" height="260" as="geometry" />
        </mxCell>
        <mxCell id="odJbvAknHmKHTzvPBQph-181" value="GitHub" style="text;html=1;align=center;verticalAlign=middle;whiteSpace=wrap;rounded=0;" vertex="1" parent="1">
          <mxGeometry x="1060" y="2480" width="60" height="30" as="geometry" />
        </mxCell>
        <mxCell id="odJbvAknHmKHTzvPBQph-182" value="" style="rounded=0;whiteSpace=wrap;html=1;fillColor=#fff2cc;strokeColor=#d6b656;" vertex="1" parent="1">
          <mxGeometry x="880" y="2560" width="100" height="160" as="geometry" />
        </mxCell>
        <mxCell id="odJbvAknHmKHTzvPBQph-183" value="ciao" style="shape=note;whiteSpace=wrap;html=1;backgroundOutline=1;darkOpacity=0.05;" vertex="1" parent="1">
          <mxGeometry x="889" y="2580" width="80" height="100" as="geometry" />
        </mxCell>
        <mxCell id="odJbvAknHmKHTzvPBQph-184" value="prova.txt" style="text;html=1;align=center;verticalAlign=middle;whiteSpace=wrap;rounded=0;" vertex="1" parent="1">
          <mxGeometry x="899" y="2680" width="60" height="30" as="geometry" />
        </mxCell>
        <mxCell id="odJbvAknHmKHTzvPBQph-185" value="AB1234&lt;div&gt;20240906T1056&lt;/div&gt;" style="text;html=1;align=center;verticalAlign=middle;whiteSpace=wrap;rounded=0;" vertex="1" parent="1">
          <mxGeometry x="899" y="2720" width="60" height="30" as="geometry" />
        </mxCell>
        <mxCell id="odJbvAknHmKHTzvPBQph-190" style="edgeStyle=orthogonalEdgeStyle;rounded=0;orthogonalLoop=1;jettySize=auto;html=1;entryX=0;entryY=0;entryDx=160;entryDy=260;entryPerimeter=0;" edge="1" parent="1" source="odJbvAknHmKHTzvPBQph-177" target="odJbvAknHmKHTzvPBQph-180">
          <mxGeometry relative="1" as="geometry" />
        </mxCell>
        <mxCell id="odJbvAknHmKHTzvPBQph-191" value="API REST&amp;nbsp;&lt;br&gt;SERVER" style="shape=cube;whiteSpace=wrap;html=1;boundedLbl=1;backgroundOutline=1;darkOpacity=0.05;darkOpacity2=0.1;" vertex="1" parent="1">
          <mxGeometry x="840" y="3620" width="120" height="80" as="geometry" />
        </mxCell>
        <mxCell id="odJbvAknHmKHTzvPBQph-192" value="Client" style="shape=cube;whiteSpace=wrap;html=1;boundedLbl=1;backgroundOutline=1;darkOpacity=0.05;darkOpacity2=0.1;" vertex="1" parent="1">
          <mxGeometry x="840" y="3890" width="120" height="80" as="geometry" />
        </mxCell>
        <mxCell id="odJbvAknHmKHTzvPBQph-193" style="edgeStyle=orthogonalEdgeStyle;rounded=0;orthogonalLoop=1;jettySize=auto;html=1;entryX=0;entryY=0;entryDx=0;entryDy=30;entryPerimeter=0;" edge="1" parent="1" source="odJbvAknHmKHTzvPBQph-192" target="odJbvAknHmKHTzvPBQph-191">
          <mxGeometry relative="1" as="geometry">
            <Array as="points">
              <mxPoint x="820" y="3930" />
              <mxPoint x="820" y="3650" />
            </Array>
          </mxGeometry>
        </mxCell>
        <mxCell id="odJbvAknHmKHTzvPBQph-194" value="&lt;div&gt;HTTP&lt;/div&gt;REQUEST" style="text;html=1;align=center;verticalAlign=middle;whiteSpace=wrap;rounded=0;" vertex="1" parent="1">
          <mxGeometry x="745" y="3770" width="60" height="30" as="geometry" />
        </mxCell>
        <mxCell id="odJbvAknHmKHTzvPBQph-195" style="edgeStyle=orthogonalEdgeStyle;rounded=0;orthogonalLoop=1;jettySize=auto;html=1;entryX=0;entryY=0;entryDx=120;entryDy=50;entryPerimeter=0;" edge="1" parent="1" source="odJbvAknHmKHTzvPBQph-191" target="odJbvAknHmKHTzvPBQph-192">
          <mxGeometry relative="1" as="geometry">
            <Array as="points">
              <mxPoint x="980" y="3660" />
              <mxPoint x="980" y="3940" />
            </Array>
          </mxGeometry>
        </mxCell>
        <mxCell id="odJbvAknHmKHTzvPBQph-196" value="&lt;div&gt;HTTP&lt;/div&gt;RESPONSE" style="text;html=1;align=center;verticalAlign=middle;whiteSpace=wrap;rounded=0;" vertex="1" parent="1">
          <mxGeometry x="1000" y="3770" width="60" height="30" as="geometry" />
        </mxCell>
        <mxCell id="odJbvAknHmKHTzvPBQph-198" value="Ind. Destinatario&lt;div&gt;Ind. Mittente&lt;/div&gt;&lt;div&gt;Messaggio&lt;/div&gt;" style="rounded=0;whiteSpace=wrap;html=1;fillColor=#fff2cc;strokeColor=#d6b656;" vertex="1" parent="1">
          <mxGeometry x="430" y="3740" width="120" height="60" as="geometry" />
        </mxCell>
        <mxCell id="odJbvAknHmKHTzvPBQph-199" value="GET" style="text;html=1;align=center;verticalAlign=middle;whiteSpace=wrap;rounded=0;" vertex="1" parent="1">
          <mxGeometry x="460" y="3690" width="60" height="30" as="geometry" />
        </mxCell>
        <mxCell id="odJbvAknHmKHTzvPBQph-200" value="POST" style="text;html=1;align=center;verticalAlign=middle;whiteSpace=wrap;rounded=0;" vertex="1" parent="1">
          <mxGeometry x="625" y="3690" width="60" height="30" as="geometry" />
        </mxCell>
        <mxCell id="odJbvAknHmKHTzvPBQph-202" value="Header" style="text;html=1;align=center;verticalAlign=middle;whiteSpace=wrap;rounded=0;" vertex="1" parent="1">
          <mxGeometry x="340" y="3755" width="60" height="30" as="geometry" />
        </mxCell>
        <mxCell id="odJbvAknHmKHTzvPBQph-203" value="Ind. Destinatario&lt;div&gt;Ind. Mittente&lt;/div&gt;" style="rounded=0;whiteSpace=wrap;html=1;fillColor=#fff2cc;strokeColor=#d6b656;" vertex="1" parent="1">
          <mxGeometry x="595" y="3740" width="120" height="60" as="geometry" />
        </mxCell>
        <mxCell id="odJbvAknHmKHTzvPBQph-204" value="Body&lt;br&gt;Payload" style="rounded=0;whiteSpace=wrap;html=1;fillColor=#dae8fc;strokeColor=#6c8ebf;" vertex="1" parent="1">
          <mxGeometry x="595" y="3800" width="120" height="130" as="geometry" />
        </mxCell>
        <mxCell id="odJbvAknHmKHTzvPBQph-208" value="" style="dashed=0;outlineConnect=0;html=1;align=center;labelPosition=center;verticalLabelPosition=bottom;verticalAlign=top;shape=mxgraph.weblogos.json_2" vertex="1" parent="1">
          <mxGeometry x="780" y="3820" width="80.4" height="25.200000000000003" as="geometry" />
        </mxCell>
        <mxCell id="odJbvAknHmKHTzvPBQph-209" value="" style="dashed=0;outlineConnect=0;html=1;align=center;labelPosition=center;verticalLabelPosition=bottom;verticalAlign=top;shape=mxgraph.weblogos.json_2" vertex="1" parent="1">
          <mxGeometry x="939.6" y="3820" width="80.4" height="25.200000000000003" as="geometry" />
        </mxCell>
        <mxCell id="odJbvAknHmKHTzvPBQph-210" value="Status CODE: 200" style="rounded=0;whiteSpace=wrap;html=1;fillColor=#fff2cc;strokeColor=#d6b656;" vertex="1" parent="1">
          <mxGeometry x="1100" y="3737.6" width="120" height="60" as="geometry" />
        </mxCell>
        <mxCell id="odJbvAknHmKHTzvPBQph-211" value="Body&lt;br&gt;Payload" style="rounded=0;whiteSpace=wrap;html=1;fillColor=#dae8fc;strokeColor=#6c8ebf;" vertex="1" parent="1">
          <mxGeometry x="1100" y="3797.6" width="120" height="130" as="geometry" />
        </mxCell>
        <mxCell id="odJbvAknHmKHTzvPBQph-213" style="edgeStyle=orthogonalEdgeStyle;rounded=0;orthogonalLoop=1;jettySize=auto;html=1;" edge="1" parent="1" source="odJbvAknHmKHTzvPBQph-212">
          <mxGeometry relative="1" as="geometry">
            <mxPoint x="700" y="4320" as="targetPoint" />
          </mxGeometry>
        </mxCell>
        <mxCell id="odJbvAknHmKHTzvPBQph-212" value="Sorgente" style="shape=card;whiteSpace=wrap;html=1;" vertex="1" parent="1">
          <mxGeometry x="440" y="4270" width="80" height="100" as="geometry" />
        </mxCell>
        <mxCell id="odJbvAknHmKHTzvPBQph-215" style="edgeStyle=orthogonalEdgeStyle;rounded=0;orthogonalLoop=1;jettySize=auto;html=1;" edge="1" parent="1" source="odJbvAknHmKHTzvPBQph-214">
          <mxGeometry relative="1" as="geometry">
            <mxPoint x="860" y="4320" as="targetPoint" />
          </mxGeometry>
        </mxCell>
        <mxCell id="odJbvAknHmKHTzvPBQph-214" value="" style="image;aspect=fixed;perimeter=ellipsePerimeter;html=1;align=center;shadow=0;dashed=0;spacingTop=3;image=img/lib/active_directory/generic_server.svg;" vertex="1" parent="1">
          <mxGeometry x="702" y="4260" width="67.2" height="120" as="geometry" />
        </mxCell>
        <mxCell id="odJbvAknHmKHTzvPBQph-216" value="Accendo il server" style="rounded=0;whiteSpace=wrap;html=1;" vertex="1" parent="1">
          <mxGeometry x="860" y="4290" width="120" height="60" as="geometry" />
        </mxCell>
        <mxCell id="odJbvAknHmKHTzvPBQph-217" value="IIS" style="text;html=1;align=center;verticalAlign=middle;whiteSpace=wrap;rounded=0;" vertex="1" parent="1">
          <mxGeometry x="702" y="4210" width="60" height="30" as="geometry" />
        </mxCell>
        <mxCell id="odJbvAknHmKHTzvPBQph-218" value="Compilato" style="shape=cylinder3;whiteSpace=wrap;html=1;boundedLbl=1;backgroundOutline=1;size=15;" vertex="1" parent="1">
          <mxGeometry x="581" y="4280" width="60" height="80" as="geometry" />
        </mxCell>
        <mxCell id="odJbvAknHmKHTzvPBQph-224" style="edgeStyle=orthogonalEdgeStyle;rounded=0;orthogonalLoop=1;jettySize=auto;html=1;" edge="1" parent="1" source="odJbvAknHmKHTzvPBQph-219" target="odJbvAknHmKHTzvPBQph-221">
          <mxGeometry relative="1" as="geometry">
            <Array as="points">
              <mxPoint x="930" y="4670" />
            </Array>
          </mxGeometry>
        </mxCell>
        <mxCell id="odJbvAknHmKHTzvPBQph-219" value="View" style="rounded=0;whiteSpace=wrap;html=1;fillColor=#f8cecc;strokeColor=#b85450;" vertex="1" parent="1">
          <mxGeometry x="760" y="4640" width="120" height="60" as="geometry" />
        </mxCell>
        <mxCell id="odJbvAknHmKHTzvPBQph-220" value="Model" style="rounded=0;whiteSpace=wrap;html=1;fillColor=#dae8fc;strokeColor=#6c8ebf;" vertex="1" parent="1">
          <mxGeometry x="620" y="4810" width="120" height="60" as="geometry" />
        </mxCell>
        <mxCell id="odJbvAknHmKHTzvPBQph-225" style="edgeStyle=orthogonalEdgeStyle;rounded=0;orthogonalLoop=1;jettySize=auto;html=1;entryX=1;entryY=0.5;entryDx=0;entryDy=0;" edge="1" parent="1" source="odJbvAknHmKHTzvPBQph-221" target="odJbvAknHmKHTzvPBQph-220">
          <mxGeometry relative="1" as="geometry" />
        </mxCell>
        <mxCell id="odJbvAknHmKHTzvPBQph-221" value="Controller" style="rounded=0;whiteSpace=wrap;html=1;fillColor=#dae8fc;strokeColor=#6c8ebf;" vertex="1" parent="1">
          <mxGeometry x="870" y="4810" width="120" height="60" as="geometry" />
        </mxCell>
        <mxCell id="odJbvAknHmKHTzvPBQph-223" style="edgeStyle=orthogonalEdgeStyle;rounded=0;orthogonalLoop=1;jettySize=auto;html=1;entryX=0.5;entryY=0;entryDx=0;entryDy=0;" edge="1" parent="1" source="odJbvAknHmKHTzvPBQph-222" target="odJbvAknHmKHTzvPBQph-219">
          <mxGeometry relative="1" as="geometry" />
        </mxCell>
        <mxCell id="odJbvAknHmKHTzvPBQph-227" style="edgeStyle=orthogonalEdgeStyle;rounded=0;orthogonalLoop=1;jettySize=auto;html=1;entryX=0.75;entryY=0;entryDx=0;entryDy=0;fillColor=#dae8fc;strokeColor=#6c8ebf;" edge="1" parent="1" source="odJbvAknHmKHTzvPBQph-222" target="odJbvAknHmKHTzvPBQph-221">
          <mxGeometry relative="1" as="geometry" />
        </mxCell>
        <mxCell id="odJbvAknHmKHTzvPBQph-222" value="Actor" style="shape=umlActor;verticalLabelPosition=bottom;verticalAlign=top;html=1;outlineConnect=0;" vertex="1" parent="1">
          <mxGeometry x="805" y="4520" width="30" height="60" as="geometry" />
        </mxCell>
        <mxCell id="odJbvAknHmKHTzvPBQph-228" value="Studente.cs" style="text;html=1;align=center;verticalAlign=middle;whiteSpace=wrap;rounded=0;" vertex="1" parent="1">
          <mxGeometry x="655" y="4900" width="60" height="30" as="geometry" />
        </mxCell>
        <mxCell id="odJbvAknHmKHTzvPBQph-229" value="Studente&lt;u&gt;Controller&lt;/u&gt;.cs" style="text;html=1;align=center;verticalAlign=middle;whiteSpace=wrap;rounded=0;" vertex="1" parent="1">
          <mxGeometry x="909" y="4890" width="60" height="30" as="geometry" />
        </mxCell>
        <mxCell id="odJbvAknHmKHTzvPBQph-230" value="http://localhost:71048/&amp;lt;Controller&amp;gt;/&amp;lt;Metodo&amp;gt;" style="text;html=1;align=center;verticalAlign=middle;whiteSpace=wrap;rounded=0;" vertex="1" parent="1">
          <mxGeometry x="560" y="5100" width="60" height="30" as="geometry" />
        </mxCell>
        <mxCell id="odJbvAknHmKHTzvPBQph-232" value="View" style="rounded=0;whiteSpace=wrap;html=1;" vertex="1" parent="1">
          <mxGeometry x="715" y="5360" width="120" height="60" as="geometry" />
        </mxCell>
        <mxCell id="odJbvAknHmKHTzvPBQph-233" value="Model" style="rounded=0;whiteSpace=wrap;html=1;fillColor=#dae8fc;strokeColor=#6c8ebf;" vertex="1" parent="1">
          <mxGeometry x="590" y="5530" width="120" height="60" as="geometry" />
        </mxCell>
        <mxCell id="odJbvAknHmKHTzvPBQph-234" style="edgeStyle=orthogonalEdgeStyle;rounded=0;orthogonalLoop=1;jettySize=auto;html=1;entryX=1;entryY=0.5;entryDx=0;entryDy=0;" edge="1" parent="1" source="odJbvAknHmKHTzvPBQph-235" target="odJbvAknHmKHTzvPBQph-233">
          <mxGeometry relative="1" as="geometry" />
        </mxCell>
        <mxCell id="odJbvAknHmKHTzvPBQph-235" value="Controller" style="rounded=0;whiteSpace=wrap;html=1;fillColor=#dae8fc;strokeColor=#6c8ebf;" vertex="1" parent="1">
          <mxGeometry x="840" y="5530" width="120" height="60" as="geometry" />
        </mxCell>
        <mxCell id="odJbvAknHmKHTzvPBQph-243" style="edgeStyle=orthogonalEdgeStyle;rounded=0;orthogonalLoop=1;jettySize=auto;html=1;" edge="1" parent="1" source="odJbvAknHmKHTzvPBQph-238" target="odJbvAknHmKHTzvPBQph-235">
          <mxGeometry relative="1" as="geometry" />
        </mxCell>
        <mxCell id="odJbvAknHmKHTzvPBQph-238" value="Actor" style="shape=umlActor;verticalLabelPosition=bottom;verticalAlign=top;html=1;outlineConnect=0;" vertex="1" parent="1">
          <mxGeometry x="775" y="5240" width="30" height="60" as="geometry" />
        </mxCell>
        <mxCell id="odJbvAknHmKHTzvPBQph-242" style="edgeStyle=orthogonalEdgeStyle;rounded=0;orthogonalLoop=1;jettySize=auto;html=1;" edge="1" parent="1" source="odJbvAknHmKHTzvPBQph-239" target="odJbvAknHmKHTzvPBQph-240">
          <mxGeometry relative="1" as="geometry" />
        </mxCell>
        <mxCell id="odJbvAknHmKHTzvPBQph-239" value="DAL" style="rounded=0;whiteSpace=wrap;html=1;fillColor=#fff2cc;strokeColor=#d6b656;" vertex="1" parent="1">
          <mxGeometry x="590" y="5590" width="120" height="40" as="geometry" />
        </mxCell>
        <mxCell id="odJbvAknHmKHTzvPBQph-241" style="edgeStyle=orthogonalEdgeStyle;rounded=0;orthogonalLoop=1;jettySize=auto;html=1;" edge="1" parent="1" source="odJbvAknHmKHTzvPBQph-240" target="odJbvAknHmKHTzvPBQph-239">
          <mxGeometry relative="1" as="geometry" />
        </mxCell>
        <mxCell id="odJbvAknHmKHTzvPBQph-240" value="DB" style="shape=cylinder3;whiteSpace=wrap;html=1;boundedLbl=1;backgroundOutline=1;size=15;" vertex="1" parent="1">
          <mxGeometry x="620" y="5680" width="60" height="80" as="geometry" />
        </mxCell>
      </root>
    </mxGraphModel>
  </diagram>
</mxfile>
